<svg width="59" height="13" viewBox="0 0 59 13" fill="none" xmlns="http://www.w3.org/2000/svg">
<path d="M12.6 5.44263H7.14842H5.44255H0V7.1485H5.44255H5.50744H7.14842H12.6V5.44263Z" fill="#767676"/>
<path d="M12.6 5.44255H7.14842V0H5.44255V5.44255H0V7.14842H5.44255V12.6H7.14842V7.14842H12.6V5.44255Z" fill="#767676"/>
<path d="M28 5.44702H22.5484H20.8425H15.4V7.1529H20.8425H20.9074H22.5484H28V5.44702Z" fill="#AEABA6"/>
<path d="M43.4 5.44702H37.9484H36.2425H30.8V7.1529H36.2425H36.3074H37.9484H43.4V5.44702Z" fill="#AEABA6"/>
<path d="M58.8 5.44702H53.3484H51.6426H46.2V7.1529H51.6426H51.7075H53.3484H58.8V5.44702Z" fill="#AEABA6"/>
</svg>
